# xmcd CD database file
#
# Track frame offsets:
#	150
#	15943
#	49601
#	72114
#	87190
#	118898
#
# Disc length: 1780 seconds
#
# Revision: 0
# Processed by: cddbd v1.5.2PL0 Copyright (c) Steve Scherf et al.
# Submitted via: CDex 1.70beta3
#
DISCID=4106f206
DTITLE=akiko - BEST 2005-2010 Bonus Disc-Featuring akiko
DYEAR=2010
DGENRE=Jazz
TTITLE0=Girls Are Just Girls feat.akiko - arvin homa aya
TTITLE1=What's Wrong? - mold bond akiko
TTITLE2=Desafinado
TTITLE3=Twiggy Twiggy feat.akiko - [re:jazz]
TTITLE4=Evolution? feat. akiko - STUDIO APARTMENT
TTITLE5=Golden Earring - akiko and Eribaku
EXTD=YEAR: 2010
EXTT0=
EXTT1=
EXTT2=
EXTT3=
EXTT4=
EXTT5=
PLAYORDER=
